<?xml version="1.0" standalone="no"?>
<!DOCTYPE svg PUBLIC "-//W3C//DTD SVG 20010904//EN"
 "http://www.w3.org/TR/2001/REC-SVG-20010904/DTD/svg10.dtd">
<svg version="1.0" xmlns="http://www.w3.org/2000/svg"
 width="60.000000pt" height="40.000000pt" viewBox="0 0 60.000000 40.000000"
 preserveAspectRatio="xMidYMid meet">
<metadata>
Created by potrace 1.16, written by Peter Selinger 2001-2019
</metadata>
<g transform="translate(0.000000,40.000000) scale(0.100000,-0.100000)"
fill="#000000" stroke="none">
<path d="M48 303 c-40 -44 -49 -125 -20 -183 14 -28 23 -35 47 -35 24 0 33 7
47 35 26 50 23 119 -5 161 -27 40 -47 46 -69 22z"/>
<path d="M197 302 c-39 -43 -48 -125 -19 -182 14 -28 23 -35 47 -35 24 0 34 7
48 35 26 50 19 141 -13 175 -28 30 -41 31 -63 7z"/>
<path d="M347 302 c-39 -43 -48 -125 -19 -182 14 -28 23 -35 47 -35 24 0 34 7
48 35 26 50 19 141 -13 175 -28 30 -41 31 -63 7z"/>
<path d="M497 302 c-39 -43 -48 -125 -19 -182 14 -28 23 -35 47 -35 24 0 34 7
48 35 26 50 19 141 -13 175 -28 30 -41 31 -63 7z"/>
</g>
</svg>
